<svg id="United_Kingdom" data-name="United Kingdom" xmlns="http://www.w3.org/2000/svg" width="77.5" height="52.719" viewBox="0 0 77.5 52.719">
  <defs>
    <style>
      .cls-1 {
        fill: #4758a9;
      }

      .cls-2, .cls-4 {
        fill: #fff;
      }

      .cls-2, .cls-3 {
        fill-rule: evenodd;
      }

      .cls-3, .cls-5 {
        fill: #ed5565;
      }
    </style>
  </defs>
  <rect id="Rounded_Rectangle_7_copy" data-name="Rounded Rectangle 7 copy" class="cls-1" x="3.25" y="2.719" width="70" height="47" rx="6.364" ry="6.364"/>
  <path id="Rectangle_5_copy_5" data-name="Rectangle 5 copy 5" class="cls-2" d="M1209.45,287.715l-2.7-4.2,74.8-48.228,2.7,4.2Z" transform="translate(-1206.75 -235.281)"/>
  <path id="Rectangle_5_copy_5-2" data-name="Rectangle 5 copy 5" class="cls-3" d="M1209,287.015l-1.8-2.8,74.8-48.228,1.8,2.8Z" transform="translate(-1206.75 -235.281)"/>
  <path id="Rectangle_5_copy_6" data-name="Rectangle 5 copy 6" class="cls-2" d="M1281.31,288l2.69-4.167L1209.69,236l-2.69,4.167Z" transform="translate(-1206.75 -235.281)"/>
  <path id="Rectangle_5_copy_6-2" data-name="Rectangle 5 copy 6" class="cls-3" d="M1281.76,287.3l1.8-2.778L1209.24,236.7l-1.8,2.778Z" transform="translate(-1206.75 -235.281)"/>
  <path id="Rectangle_5_copy_4" data-name="Rectangle 5 copy 4" class="cls-2" d="M1210,268V256h70v12h-70Z" transform="translate(-1206.75 -235.281)"/>
  <rect id="Rectangle_5_copy_3" data-name="Rectangle 5 copy 3" class="cls-4" x="32.25" y="2.719" width="12" height="47"/>
  <path id="Rectangle_5_copy_2" data-name="Rectangle 5 copy 2" class="cls-3" d="M1210,266v-8h70v8h-70Z" transform="translate(-1206.75 -235.281)"/>
  <rect id="Rectangle_5_copy_2-2" data-name="Rectangle 5 copy 2" class="cls-5" x="34.25" y="2.719" width="8" height="47"/>
</svg>
